<svg version="1" xmlns="http://www.w3.org/2000/svg" width="682.667" height="682.667" viewBox="0 0 512.000000 512.000000"><path d="M0 256v256h512V0H0v256zm61.3-155.6c7.7 3.2 12.5 13.5 13.4 28.5 1.3 23.4-6.9 38-21.5 38.1-6.7 0-10.9-1.8-14.9-6.3-5.3-6.1-6.8-12.3-6.8-28.2.1-12.1.4-14.7 2.3-19.5 2.7-6.5 4.7-9.1 9.3-11.9 4-2.5 13.2-2.8 18.2-.7zm114.4-.3c8.9 3.4 14.3 16 14.3 33.5 0 11.7-3 22.2-7.9 27.8-2.9 3.2-8.8 5.6-14.1 5.6-11.2 0-18.2-7.2-21-21.8-1.5-7.6-.8-23.6 1.4-30.7 1.8-5.9 6.7-12.2 11-14.1 3.8-1.6 12.4-1.8 16.3-.3zm59 .6c9.6 4.5 14.8 22.2 12.3 41.2-2.1 15.5-8.1 23.7-18.4 24.8-10.1 1.2-17.3-3.1-21.7-13-2.2-4.8-2.4-6.5-2.4-20.8v-15.6l3.5-6.9c2.7-5.2 4.4-7.4 7.5-9.1 5-2.8 14-3.1 19.2-.6zm57.2-.3c4.3 2.3 8.7 7.9 10.7 13.8 1.5 4.1 1.9 8.2 1.9 18.8 0 15.4-1.6 21.7-6.8 27.7-3.9 4.4-8.2 6.3-14.5 6.3-10.7 0-17.8-7.1-20.7-20.5-4.3-20.5 1.5-42 12.5-46.4 3.8-1.5 13.7-1.3 16.9.3zm57.4 0c7.7 3.2 12.5 13.5 13.4 28.5 1.3 23.4-6.9 38-21.5 38.1-6.7 0-10.9-1.8-14.9-6.3-5.3-6.1-6.8-12.3-6.8-28.2.1-12.1.4-14.7 2.3-19.5 2.7-6.5 4.7-9.1 9.3-11.9 4-2.5 13.2-2.8 18.2-.7zm114.4-.3c8.9 3.4 14.3 16 14.3 33.5 0 11.7-3 22.2-7.9 27.8-2.9 3.2-8.8 5.6-14.1 5.6-11.2 0-18.2-7.2-21-21.8-1.5-7.6-.8-23.6 1.4-30.7 1.8-5.9 6.7-12.2 11-14.1 3.8-1.6 12.4-1.8 16.3-.3zM118 129v29h14v8H93v-8h16v-48.1l-2.2 1.2c-1.2.7-4.6 2.7-7.4 4.5l-5.2 3.3-1.6-2.4c-.8-1.3-1.7-2.8-1.8-3.4-.2-.6 4-3.8 9.2-7.1 7.7-4.8 10.3-6 13.8-6h4.2v29zm288 0v29h14v8h-39v-8h16v-48.1l-2.2 1.2c-1.2.7-4.6 2.7-7.4 4.5l-5.2 3.3-1.6-2.4c-.8-1.3-1.7-2.8-1.8-3.4-.2-.6 4-3.8 9.2-7.1 7.7-4.8 10.3-6 13.8-6h4.2v29zM61.3 215.4c7.7 3.2 12.5 13.5 13.4 28.5 1.3 23.4-6.9 38-21.5 38.1-6.7 0-10.9-1.8-14.9-6.3-5.3-6.1-6.8-12.3-6.8-28.2.1-12.1.4-14.7 2.3-19.5 2.7-6.5 4.7-9.1 9.3-11.9 4-2.5 13.2-2.8 18.2-.7zm114.4-.3c8.9 3.4 14.3 16 14.3 33.5 0 11.7-3 22.2-7.9 27.8-2.9 3.2-8.8 5.6-14.1 5.6-11.2 0-18.2-7.2-21-21.8-1.5-7.6-.8-23.6 1.4-30.7 1.8-5.9 6.7-12.2 11-14.1 3.8-1.6 12.4-1.8 16.3-.3zm59 .6c9.6 4.5 14.8 22.2 12.3 41.2-2.1 15.5-8.1 23.7-18.4 24.8-10.1 1.2-17.3-3.1-21.7-13-2.2-4.8-2.4-6.5-2.4-20.8v-15.6l3.5-6.9c2.7-5.2 4.4-7.4 7.5-9.1 5-2.8 14-3.1 19.2-.6zm114.6-.3c7.7 3.2 12.5 13.5 13.4 28.5 1.3 23.4-6.9 38-21.5 38.1-6.7 0-10.9-1.8-14.9-6.3-5.3-6.1-6.8-12.3-6.8-28.2.1-12.1.4-14.7 2.3-19.5 2.7-6.5 4.7-9.1 9.3-11.9 4-2.5 13.2-2.8 18.2-.7zm59.2.9c3.1 1.7 4.8 3.9 7.5 9.1l3.5 6.9v15.6c0 14.2-.2 16.1-2.3 20.6-4.3 9.4-10.1 13.5-18.9 13.5-10.1 0-17.9-7.2-20.4-18.8-1.7-7.6-1.6-22.2.1-30.1 1.6-7.6 6.1-14.7 11-17.3 5.1-2.6 14.4-2.4 19.5.5zM118 244v29h14v8H93v-8h16v-48.1l-2.2 1.2c-1.2.7-4.6 2.7-7.4 4.5l-5.2 3.3-1.6-2.4c-.8-1.3-1.7-2.8-1.8-3.4-.2-.6 4-3.8 9.2-7.1 7.7-4.8 10.3-6 13.8-6h4.2v29zm173 0v29h14v8h-39v-8h16v-48.2l-4.7 2.8c-2.7 1.5-5.7 3.3-6.8 4.1-2.9 2-4.3 1.6-6-1.7-1.7-3.4-3-2.1 10.5-10.4 5.8-3.6 8.4-4.6 11.7-4.6h4.3v29zm173 0v28.9l6.8.3 6.7.3.3 3.7.3 3.8h-40.2l.3-3.8.3-3.7 7.8-.3 7.7-.3V225l-7.2 4.5-7.2 4.4-1.9-3.1c-2.3-3.8-2.2-3.8 9.3-10.7 6.6-4 9.4-5.1 12.8-5.1h4.2v29zM61.3 330.4c7.7 3.2 12.5 13.5 13.4 28.5 1.3 23.4-6.9 38-21.5 38.1-6.7 0-10.9-1.8-14.9-6.3-5.3-6.1-6.8-12.3-6.8-28.2.1-12.1.4-14.7 2.3-19.5 2.7-6.5 4.7-9.1 9.3-11.9 4-2.5 13.2-2.8 18.2-.7zm114.4-.3c8.9 3.4 14.3 16 14.3 33.5 0 11.7-3 22.2-7.9 27.8-6.4 7.3-21.8 7.3-28.2 0-2.9-3.3-5.7-9.8-6.9-16.2-1.5-7.6-.8-23.6 1.4-30.7 1.8-5.9 6.7-12.2 11-14.1 3.8-1.6 12.4-1.8 16.3-.3zm116.2.3c4.3 2.3 8.7 7.9 10.7 13.8 1.5 4.1 1.9 8.2 1.9 18.8 0 15.4-1.6 21.7-6.8 27.7-3.9 4.4-8.2 6.3-14.5 6.3-10.7 0-17.8-7.1-20.7-20.5-4.3-20.5 1.5-42 12.5-46.4 3.8-1.5 13.7-1.3 16.9.3zm116.6.9c3.1 1.7 4.8 3.9 7.5 9.1l3.5 6.9v15.6c0 14.2-.2 16.1-2.3 20.6-4.3 9.4-10.1 13.5-18.9 13.5-10.1 0-17.9-7.2-20.4-18.8-1.7-7.6-1.6-22.2.1-30.1 1.6-7.6 6.1-14.7 11-17.3 5.1-2.6 14.4-2.4 19.5.5zm55.2-1.2c8.9 3.4 14.3 16 14.3 33.5 0 11.7-3 22.2-7.9 27.8-6.4 7.3-21.8 7.3-28.2 0-2.9-3.3-5.7-9.8-6.9-16.2-1.5-7.6-.8-23.6 1.4-30.7 1.8-5.9 6.7-12.2 11-14.1 3.8-1.6 12.4-1.8 16.3-.3zM118 359v29h14v8H93v-8h16v-48.1l-2.2 1.2c-1.2.7-4.6 2.7-7.4 4.5l-5.2 3.3-1.6-2.4c-.8-1.3-1.7-2.8-1.8-3.4-.2-.6 4-3.8 9.2-7.1 7.7-4.8 10.3-6 13.8-6h4.2v29zm116 0v29h13v8h-39v-8h16v-48.2l-3.7 2.3c-2.1 1.2-4.9 3-6.3 3.9-1.4.9-3 2-3.7 2.3-.6.4-1.9-.7-3.1-2.7l-2.1-3.5 9.7-6c8.2-5.1 10.4-6 14.5-6.1h4.7v29zm115 0v29h13v8h-39v-8h16v-48l-7.2 4.4-7.3 4.4-1.7-2.6c-1-1.5-1.8-3.2-1.8-3.7.1-.6 4.2-3.6 9.3-6.7 7.6-4.7 10-5.7 14-5.7l4.7-.1v29z"/><path d="M48.2 107.3c-3.4 1.6-6.1 7.6-7.3 16.4-1 7.2-.5 21.5.9 23.7.5 1 19.1-34.9 19.1-37.1.1-1.6-5.1-4.3-8.1-4.2-1.3 0-3.3.5-4.6 1.2zM54.1 137.1c-8.4 17.5-9 19.4-7.6 20.8 1 1 3.3 1.6 6.1 1.6 5.6 0 8.6-2.9 10.9-10.7 1.6-5.5 2.1-27.3.7-29.6-.6-.8-4.1 5.5-10.1 17.9zM162.2 108.5c-4.7 3.9-6.2 10.3-6.2 25.6 0 7 .4 13 .8 13.3.4.3 5-8 10.2-18.5 8.6-17.2 9.3-19 7.9-20.5-.9-.8-3.4-1.8-5.6-2.1-3.2-.4-4.4 0-7.1 2.2zM169.1 137.7c-8.6 17.3-9.2 18.8-7.5 20 3.3 2.4 8.4 2.7 11.2.6 5.4-3.9 6.7-8.4 7-24.6.2-8.1 0-14.7-.5-14.7-.4 0-5 8.4-10.2 18.7zM219.1 108.9c-1.5 1.6-3.3 4.9-4 7.3-1.7 5.6-2.5 23.1-1.4 28.3l1 4 9.6-19.2c5.3-10.6 9.7-19.5 9.7-19.8 0-1.1-6.2-3.5-9-3.5-2.2 0-4 .9-5.9 2.9zM227 136.9c-10.2 20.7-10.4 21.4-3.5 22.7 5 .9 9.3-1.8 11.8-7.4 1.6-3.7 2.1-7.4 2.5-17.2.6-20.1.2-20.1-10.8 1.9zM277 108.8c-4.2 4.3-6 11.7-6 25.1 0 6.4.4 12.1.8 12.8.5.8 4.4-6 10.2-17.8l9.5-19.1-2.4-1.9c-3.5-2.9-8.7-2.5-12.1.9zM287.1 131.9c-3.9 7.8-8.3 16.7-9.6 19.7l-2.4 5.4 2.9 1.5c1.6.8 4.1 1.5 5.6 1.5 3.5 0 8.9-5.6 10.3-10.6 1.5-5.9 2.2-20.2 1.3-26.4l-.8-5.5-7.3 14.4zM336.2 107.3c-3.4 1.6-6.1 7.6-7.3 16.4-1 7.2-.5 21.5.9 23.7.5 1 19.1-34.9 19.1-37.1.1-1.6-5.1-4.3-8.1-4.2-1.3 0-3.3.5-4.6 1.2zM342.1 137.1c-8.4 17.5-9 19.4-7.6 20.8 1 1 3.3 1.6 6.1 1.6 5.6 0 8.6-2.9 10.9-10.7 1.6-5.5 2.1-27.3.7-29.6-.6-.8-4.1 5.5-10.1 17.9zM450.2 108.5c-4.7 3.9-6.2 10.3-6.2 25.6 0 7 .4 13 .8 13.3.4.3 5-8 10.2-18.5 8.6-17.2 9.3-19 7.9-20.5-.9-.8-3.4-1.8-5.6-2.1-3.2-.4-4.4 0-7.1 2.2zM457.1 137.7c-8.6 17.3-9.2 18.8-7.5 20 3.3 2.4 8.4 2.7 11.2.6 5.4-3.9 6.7-8.4 7-24.6.2-8.1 0-14.7-.5-14.7-.4 0-5 8.4-10.2 18.7zM48.2 222.3c-3.4 1.6-6.1 7.6-7.3 16.4-1 7.2-.5 21.5.9 23.7.5 1 19.1-34.9 19.1-37.1.1-1.6-5.1-4.3-8.1-4.2-1.3 0-3.3.5-4.6 1.2zM54.1 252.1c-8.4 17.5-9 19.4-7.6 20.8 1 1 3.3 1.6 6.1 1.6 5.6 0 8.6-2.9 10.9-10.7 1.6-5.5 2.1-27.3.7-29.6-.6-.8-4.1 5.5-10.1 17.9zM162.2 223.5c-4.7 3.9-6.2 10.3-6.2 25.6 0 7 .4 13 .8 13.3.4.3 5-8 10.2-18.5 8.6-17.2 9.3-19 7.9-20.5-.9-.8-3.4-1.8-5.6-2.1-3.2-.4-4.4 0-7.1 2.2zM169.1 252.7c-8.6 17.3-9.2 18.8-7.5 20 3.3 2.4 8.4 2.7 11.2.6 5.4-3.9 6.7-8.4 7-24.6.2-8.1 0-14.7-.5-14.7-.4 0-5 8.4-10.2 18.7zM219.1 223.9c-1.5 1.6-3.3 4.9-4 7.3-1.7 5.6-2.5 23.1-1.4 28.3l1 4 9.6-19.2c5.3-10.6 9.7-19.5 9.7-19.8 0-1.1-6.2-3.5-9-3.5-2.2 0-4 .9-5.9 2.9zM227 251.9c-10.2 20.7-10.4 21.4-3.5 22.7 5 .9 9.3-1.8 11.8-7.4 1.6-3.7 2.1-7.4 2.5-17.2.6-20.1.2-20.1-10.8 1.9zM336.2 222.3c-3.4 1.6-6.1 7.6-7.3 16.4-1 7.2-.5 21.5.9 23.7.5 1 19.1-34.9 19.1-37.1.1-1.6-5.1-4.3-8.1-4.2-1.3 0-3.3.5-4.6 1.2zM342.1 252.1c-8.4 17.5-9 19.4-7.6 20.8 1 1 3.3 1.6 6.1 1.6 5.6 0 8.6-2.9 10.9-10.7 1.6-5.5 2.1-27.3.7-29.6-.6-.8-4.1 5.5-10.1 17.9zM394 222.3c-4.4 2.1-7.1 9.4-7.7 20.5-.3 5.4-.2 12.5.2 15.8l.7 5.9 9.9-19.5 9.8-19.5-2.5-2.3c-2.8-2.4-6.6-2.8-10.4-.9zM400 252l-9.5 19.2 2.4 1.9c4.5 3.7 11.6 1.5 14.5-4.6 2.3-4.8 3.6-13.4 3.5-22.5-.3-15.2-.4-15.2-10.9 6zM48.2 337.3c-3.4 1.6-6.1 7.6-7.3 16.4-1 7.2-.5 21.5.9 23.7.5 1 19.1-34.9 19.1-37.1.1-1.6-5.1-4.3-8.1-4.2-1.3 0-3.3.5-4.6 1.2zM54.1 367.1c-8.4 17.5-9 19.4-7.6 20.8 1 1 3.3 1.6 6.1 1.6 5.6 0 8.6-2.9 10.9-10.7 1.6-5.5 2.1-27.3.7-29.6-.6-.8-4.1 5.5-10.1 17.9zM162.2 338.5c-4.7 3.9-6.2 10.3-6.2 25.6 0 7 .4 13 .8 13.3.4.3 5-8 10.2-18.5 8.6-17.2 9.3-19 7.9-20.5-.9-.8-3.4-1.8-5.6-2.1-3.2-.4-4.4 0-7.1 2.2zM169.1 367.7c-8.6 17.3-9.2 18.8-7.5 20 3.3 2.4 8.4 2.7 11.2.6 5.4-3.9 6.7-8.4 7-24.6.2-8.1 0-14.7-.5-14.7-.4 0-5 8.4-10.2 18.7zM277 338.8c-4.2 4.3-6 11.7-6 25.1 0 6.4.4 12.1.8 12.8.5.8 4.4-6 10.2-17.8l9.5-19.1-2.4-1.9c-3.5-2.9-8.7-2.5-12.1.9zM287.1 361.9c-3.9 7.8-8.3 16.7-9.6 19.7l-2.4 5.4 2.9 1.5c1.6.8 4.1 1.5 5.6 1.5 3.5 0 8.9-5.6 10.3-10.6 1.5-5.9 2.2-20.2 1.3-26.4l-.8-5.5-7.3 14.4zM394 337.3c-4.4 2.1-7.1 9.4-7.7 20.5-.3 5.4-.2 12.5.2 15.8l.7 5.9 9.9-19.5 9.8-19.5-2.5-2.3c-2.8-2.4-6.6-2.8-10.4-.9zM400 367l-9.5 19.2 2.4 1.9c4.5 3.7 11.6 1.5 14.5-4.6 2.3-4.8 3.6-13.4 3.5-22.5-.3-15.2-.4-15.2-10.9 6zM450.2 338.5c-4.7 3.9-6.2 10.3-6.2 25.6 0 7 .4 13 .8 13.3.4.3 5-8 10.2-18.5 8.6-17.2 9.3-19 7.9-20.5-.9-.8-3.4-1.8-5.6-2.1-3.2-.4-4.4 0-7.1 2.2zM457.1 367.7c-8.6 17.3-9.2 18.8-7.5 20 3.3 2.4 8.4 2.7 11.2.6 5.4-3.9 6.7-8.4 7-24.6.2-8.1 0-14.7-.5-14.7-.4 0-5 8.4-10.2 18.7z"/></svg>